<svg width="171" height="252" viewBox="0 0 171 252" fill="none" xmlns="http://www.w3.org/2000/svg">
<mask id="path-1-inside-1_26_17" fill="white">
<path d="M117.263 195.621C117.263 202.947 115.82 210.202 113.016 216.971C110.212 223.739 106.103 229.889 100.922 235.07C95.7419 240.25 89.5917 244.36 82.8231 247.163C76.0545 249.967 68.7999 251.41 61.4736 251.41C54.1473 251.41 46.8927 249.967 40.124 247.163C33.3554 244.36 27.2053 240.25 22.0248 235.07C16.8443 229.889 12.7349 223.739 9.93125 216.971C7.12759 210.202 5.68457 202.947 5.68457 195.621L61.4736 195.621H117.263Z"/>
</mask>
<path d="M117.263 195.621C117.263 202.947 115.82 210.202 113.016 216.971C110.212 223.739 106.103 229.889 100.922 235.07C95.7419 240.25 89.5917 244.36 82.8231 247.163C76.0545 249.967 68.7999 251.41 61.4736 251.41C54.1473 251.41 46.8927 249.967 40.124 247.163C33.3554 244.36 27.2053 240.25 22.0248 235.07C16.8443 229.889 12.7349 223.739 9.93125 216.971C7.12759 210.202 5.68457 202.947 5.68457 195.621L61.4736 195.621H117.263Z" fill="#F2E9E4" stroke="#F2E9E4" stroke-width="6" mask="url(#path-1-inside-1_26_17)"/>
<path d="M116.78 196.602L116.796 206.193C116.805 211.695 121.367 216.149 126.869 216.14C132.269 216.131 136.732 211.747 136.723 206.347C136.714 200.947 132.33 196.576 126.93 196.585L116.78 196.602Z" stroke="#F2E9E4" stroke-width="2"/>
<path fill-rule="evenodd" clip-rule="evenodd" d="M56.7717 77.3569C63.2223 95.7189 74.4761 105.343 85.5278 114.795C102.457 129.273 118.913 143.345 116.905 187.799H38.0173C36.0829 184.806 39.0368 182.489 42.7285 179.594C45.0262 177.792 47.6097 175.765 49.4783 173.212C52.6778 168.841 48.5853 159.37 48.5853 159.37L23.4306 187.799H8.84393C8.19993 185.504 9.72677 185.062 12.0203 184.398C15.8879 183.278 21.9357 181.527 23.4306 169.194C25.8121 149.546 23.4306 127.517 23.4306 127.517C23.4306 127.517 -0.934403 110.847 2.2948 71.1055C4.16871 48.0435 15.3253 35.1434 24.692 24.3128C31.4664 16.4797 37.3045 9.72923 38.0173 1V25.4104C40.9544 21.6718 43.9418 19.1341 46.6562 16.8284C51.5382 12.6815 55.5371 9.28467 56.7717 1V25.4104C68.1254 33.3616 72.7425 38.451 74.6329 49.8208H100.681C92.2086 77.2605 78.4576 79.0814 56.7717 77.3569ZM116.905 187.799C125.933 187.41 126.392 141.448 126.741 106.478V106.478C126.857 94.8703 126.961 84.4738 127.362 77.3569C128.972 48.799 163.79 44.1647 169 57.1142C160.449 63.3361 160.937 82.3052 161.495 103.931C162.471 141.793 163.657 187.799 116.905 187.799ZM71.5737 43.9387C71.5737 49.3048 67.2237 53.6548 61.8577 53.6548C56.4916 53.6548 52.1416 49.3048 52.1416 43.9387C52.1416 38.5727 56.4916 34.2227 61.8577 34.2227C67.2237 34.2227 71.5737 38.5727 71.5737 43.9387Z" fill="#F2E9E4"/>
<path d="M85.5278 114.795L86.5027 113.655L86.5027 113.655L85.5278 114.795ZM56.7717 77.3569L56.8906 75.8616L54.5923 75.6789L55.3565 77.8541L56.7717 77.3569ZM38.0173 187.799L36.7575 188.613L37.2008 189.299H38.0173V187.799ZM42.7285 179.594L41.8028 178.413L41.8028 178.413L42.7285 179.594ZM49.4783 173.212L48.2679 172.326L48.2679 172.326L49.4783 173.212ZM48.5853 159.37L49.9622 158.775L49.026 156.608L47.4619 158.376L48.5853 159.37ZM23.4306 187.799V189.299H24.1063L24.554 188.793L23.4306 187.799ZM8.84393 187.799L7.3997 188.204L7.70686 189.299H8.84393V187.799ZM12.0203 184.398L11.6032 182.957L11.6032 182.957L12.0203 184.398ZM23.4306 169.194L21.9415 169.013L21.9415 169.013L23.4306 169.194ZM23.4306 127.517L24.9219 127.356L24.8477 126.669L24.2777 126.279L23.4306 127.517ZM2.2948 71.1055L0.799727 70.984L2.2948 71.1055ZM24.692 24.3128L25.8265 25.294L25.8265 25.294L24.692 24.3128ZM38.0173 1H39.5173L36.5223 0.87791L38.0173 1ZM38.0173 25.4104H36.5173V29.7479L39.1969 26.337L38.0173 25.4104ZM46.6562 16.8284L47.6273 17.9716L47.6273 17.9716L46.6562 16.8284ZM56.7717 1H58.2717L55.2881 0.778914L56.7717 1ZM56.7717 25.4104H55.2717V26.1912L55.9112 26.6391L56.7717 25.4104ZM74.6329 49.8208L73.1533 50.0668L73.3617 51.3208H74.6329V49.8208ZM100.681 49.8208L102.114 50.2633L102.714 48.3208H100.681V49.8208ZM126.741 106.478L128.241 106.493L128.241 106.485V106.478H126.741ZM126.741 106.478L125.242 106.463L125.241 106.47V106.478H126.741ZM127.362 77.3569L128.86 77.4413L128.86 77.4413L127.362 77.3569ZM169 57.1142L169.883 58.3271L170.828 57.6391L170.392 56.5543L169 57.1142ZM161.495 103.931L162.994 103.892L162.994 103.892L161.495 103.931ZM86.5027 113.655C75.4567 104.208 64.4925 94.8088 58.1869 76.8597L55.3565 77.8541C61.9522 96.629 73.4954 106.478 84.5529 115.935L86.5027 113.655ZM118.403 187.867C119.416 165.443 115.777 150.52 109.632 139.334C103.504 128.177 94.9483 120.877 86.5027 113.655L84.5529 115.935C93.0367 123.19 101.174 130.166 107.003 140.778C112.816 151.361 116.401 165.702 115.406 187.731L118.403 187.867ZM38.0173 189.299H116.905V186.299H38.0173V189.299ZM41.8028 178.413C40.0207 179.811 38.1596 181.254 37.0507 182.777C36.4741 183.568 36.0198 184.483 35.9245 185.525C35.8265 186.594 36.1222 187.63 36.7575 188.613L39.2771 186.985C38.9452 186.471 38.8847 186.095 38.912 185.798C38.9418 185.473 39.094 185.067 39.4755 184.543C40.2829 183.435 41.7446 182.272 43.6542 180.774L41.8028 178.413ZM48.2679 172.326C46.5418 174.685 44.129 176.589 41.8028 178.413L43.6542 180.774C45.9234 178.994 48.6776 176.846 50.6887 174.098L48.2679 172.326ZM48.5853 159.37C47.2083 159.965 47.2082 159.965 47.2081 159.964C47.2081 159.964 47.208 159.964 47.208 159.964C47.2079 159.964 47.2079 159.964 47.208 159.964C47.2081 159.964 47.2085 159.965 47.2091 159.967C47.2104 159.97 47.2126 159.975 47.2157 159.982C47.2218 159.997 47.2317 160.02 47.2447 160.052C47.2709 160.115 47.3102 160.211 47.3597 160.336C47.4589 160.588 47.5991 160.956 47.7585 161.412C48.0783 162.329 48.4699 163.587 48.7647 164.966C49.0613 166.352 49.2486 167.81 49.19 169.139C49.1309 170.48 48.8276 171.562 48.2679 172.326L50.6887 174.098C51.7287 172.677 52.1137 170.936 52.1871 169.271C52.261 167.596 52.0251 165.866 51.6984 164.338C51.37 162.803 50.9385 161.42 50.591 160.424C50.4166 159.924 50.2621 159.518 50.15 159.234C50.0939 159.092 50.0483 158.981 50.0161 158.903C50 158.864 49.9872 158.834 49.9781 158.812C49.9736 158.802 49.97 158.793 49.9673 158.787C49.966 158.784 49.9649 158.781 49.964 158.779C49.9636 158.778 49.9632 158.777 49.9629 158.777C49.9628 158.776 49.9626 158.776 49.9625 158.776C49.9624 158.775 49.9622 158.775 48.5853 159.37ZM24.554 188.793L49.7086 160.364L47.4619 158.376L22.3073 186.805L24.554 188.793ZM8.84393 189.299H23.4306V186.299H8.84393V189.299ZM11.6032 182.957C11.045 183.118 10.4599 183.287 9.93963 183.482C9.42317 183.675 8.86086 183.933 8.38137 184.325C7.8702 184.743 7.46093 185.307 7.28613 186.048C7.11984 186.753 7.19745 187.483 7.3997 188.204L10.2882 187.394C10.1684 186.967 10.1954 186.782 10.2059 186.737C10.2079 186.729 10.203 186.711 10.2797 186.648C10.3881 186.56 10.5973 186.439 10.9921 186.291C11.3831 186.145 11.8489 186.009 12.4375 185.838L11.6032 182.957ZM21.9415 169.013C21.2222 174.948 19.4381 178.111 17.5702 179.925C15.6827 181.758 13.5399 182.396 11.6032 182.957L12.4375 185.838C14.3684 185.279 17.1832 184.482 19.6603 182.077C22.1569 179.652 24.1441 175.773 24.9197 169.374L21.9415 169.013ZM23.4306 127.517C21.9393 127.679 21.9393 127.678 21.9393 127.678C21.9393 127.679 21.9393 127.679 21.9394 127.679C21.9394 127.679 21.9395 127.68 21.9396 127.681C21.9399 127.684 21.9403 127.687 21.9408 127.692C21.9418 127.702 21.9434 127.717 21.9456 127.738C21.9498 127.778 21.9562 127.84 21.9645 127.921C21.981 128.084 22.0051 128.326 22.0349 128.643C22.0947 129.277 22.1778 130.206 22.2701 131.384C22.4549 133.739 22.6768 137.086 22.8247 141.044C23.121 148.969 23.1188 159.3 21.9415 169.013L24.9197 169.374C26.1239 159.439 26.1217 148.932 25.8227 140.932C25.6729 136.926 25.4483 133.538 25.2609 131.149C25.1672 129.954 25.0828 129.009 25.0217 128.361C24.9911 128.037 24.9663 127.788 24.9491 127.618C24.9405 127.533 24.9338 127.469 24.9292 127.425C24.9269 127.403 24.9251 127.386 24.9239 127.375C24.9233 127.369 24.9228 127.364 24.9225 127.361C24.9223 127.36 24.9222 127.359 24.9221 127.358C24.9221 127.357 24.922 127.357 24.922 127.357C24.922 127.356 24.9219 127.356 23.4306 127.517ZM0.799727 70.984C-0.843043 91.2013 4.53509 105.622 10.3784 115.007C13.2949 119.692 16.3193 123.11 18.6255 125.364C19.7788 126.492 20.7536 127.329 21.447 127.89C21.7938 128.17 22.0704 128.381 22.2641 128.525C22.3609 128.597 22.437 128.652 22.4908 128.69C22.5177 128.709 22.539 128.724 22.5545 128.735C22.5623 128.741 22.5686 128.745 22.5735 128.748C22.5759 128.75 22.578 128.751 22.5797 128.753C22.5805 128.753 22.5815 128.754 22.5819 128.754C22.5828 128.755 22.5836 128.755 23.4306 127.517C24.2777 126.279 24.2783 126.28 24.2788 126.28C24.2788 126.28 24.2793 126.28 24.2794 126.281C24.2796 126.281 24.2794 126.281 24.2789 126.28C24.2779 126.279 24.2754 126.278 24.2714 126.275C24.2636 126.27 24.25 126.26 24.2309 126.246C24.1926 126.219 24.1323 126.176 24.0515 126.116C23.8898 125.996 23.6461 125.81 23.333 125.557C22.7066 125.051 21.8031 124.275 20.7227 123.219C18.5613 121.106 15.6963 117.873 12.9251 113.422C7.39323 104.536 2.20344 90.751 3.78987 71.227L0.799727 70.984ZM23.5574 23.3316C14.1681 34.1883 2.71556 47.4062 0.799727 70.984L3.78987 71.227C5.62186 48.6809 16.4825 36.0984 25.8265 25.294L23.5574 23.3316ZM36.5223 0.87791C35.8568 9.02729 30.4176 15.3994 23.5574 23.3316L25.8265 25.294C32.5152 17.5601 38.7521 10.4312 39.5124 1.12209L36.5223 0.87791ZM39.5173 25.4104V1H36.5173V25.4104H39.5173ZM45.6851 15.6852C42.9706 17.991 39.8777 20.6142 36.8378 24.4838L39.1969 26.337C42.031 22.7294 44.913 20.2773 47.6273 17.9716L45.6851 15.6852ZM55.2881 0.778914C54.7045 4.69462 53.4841 7.38315 51.8726 9.57817C50.23 11.8156 48.1503 13.5912 45.6851 15.6852L47.6273 17.9716C50.0442 15.9187 52.4049 13.9224 54.2909 11.3536C56.208 8.74226 57.6042 5.59005 58.2553 1.22109L55.2881 0.778914ZM58.2717 25.4104V1H55.2717V25.4104H58.2717ZM76.1126 49.5748C75.1377 43.7112 73.4362 39.3511 70.4441 35.4245C67.4855 31.5417 63.3297 28.1719 57.6321 24.1817L55.9112 26.6391C61.5673 30.6002 65.3969 33.7506 68.0579 37.2427C70.6855 40.6911 72.2378 44.5606 73.1533 50.0668L76.1126 49.5748ZM100.681 48.3208H74.6329V51.3208H100.681V48.3208ZM56.6528 78.8522C67.4823 79.7134 76.7373 79.7442 84.362 75.8622C92.0802 71.9325 97.8188 64.1744 102.114 50.2633L99.2474 49.3783C95.0704 62.9069 89.6975 69.7791 83.0008 73.1887C76.2104 76.646 67.747 76.7249 56.8906 75.8616L56.6528 78.8522ZM125.242 106.463C125.067 123.964 124.864 144.139 123.582 159.985C122.941 167.92 122.034 174.683 120.753 179.457C120.109 181.854 119.398 183.644 118.644 184.815C117.879 186.003 117.257 186.283 116.84 186.3L116.969 189.298C118.809 189.218 120.177 187.976 121.166 186.439C122.167 184.886 122.975 182.748 123.65 180.235C125.005 175.189 125.928 168.203 126.573 160.227C127.865 144.253 128.067 123.962 128.241 106.493L125.242 106.463ZM125.241 106.478V106.478H128.241V106.478H125.241ZM125.865 77.2725C125.461 84.4326 125.357 94.8712 125.242 106.463L128.241 106.493C128.358 94.8693 128.461 84.515 128.86 77.4413L125.865 77.2725ZM170.392 56.5543C168.844 52.7086 165.172 50.3447 160.864 49.3375C156.54 48.3264 151.369 48.6165 146.367 50.2439C136.324 53.5118 126.71 62.2754 125.865 77.2725L128.86 77.4413C129.624 63.8805 138.225 56.048 147.295 53.0967C151.851 51.6144 156.462 51.3891 160.181 52.2587C163.917 53.1322 166.551 55.045 167.608 57.674L170.392 56.5543ZM162.994 103.892C162.715 93.0465 162.459 83.0086 163.323 74.9052C164.198 66.7014 166.178 61.0225 169.883 58.3271L168.117 55.9012C163.271 59.4277 161.219 66.3444 160.34 74.5871C159.45 82.9302 159.718 93.1899 159.995 103.97L162.994 103.892ZM116.905 189.299C128.846 189.299 137.878 186.357 144.641 181.213C151.395 176.076 155.742 168.851 158.52 160.539C164.047 144.003 163.48 122.743 162.994 103.892L159.995 103.97C160.485 122.982 161 143.656 155.675 159.588C153.027 167.51 148.966 174.153 142.824 178.825C136.691 183.49 128.339 186.299 116.905 186.299V189.299ZM61.8577 55.1548C68.0521 55.1548 73.0737 50.1332 73.0737 43.9387H70.0737C70.0737 48.4763 66.3953 52.1548 61.8577 52.1548V55.1548ZM50.6416 43.9387C50.6416 50.1332 55.6632 55.1548 61.8577 55.1548V52.1548C57.3201 52.1548 53.6416 48.4763 53.6416 43.9387H50.6416ZM61.8577 32.7227C55.6632 32.7227 50.6416 37.7443 50.6416 43.9387H53.6416C53.6416 39.4011 57.3201 35.7227 61.8577 35.7227V32.7227ZM73.0737 43.9387C73.0737 37.7443 68.0521 32.7227 61.8577 32.7227V35.7227C66.3953 35.7227 70.0737 39.4011 70.0737 43.9387H73.0737Z" fill="#F2E9E4"/>
</svg>
