<svg width="422" height="556" viewBox="0 0 422 556" fill="none" xmlns="http://www.w3.org/2000/svg">
<path d="M188.905 275.059H190.565V288.564H196.483V290H188.905V275.059ZM198.065 284.219C198.065 282.741 198.14 281.709 198.29 281.123C198.44 280.537 198.622 280.075 198.837 279.736C199.058 279.391 199.354 279.105 199.725 278.877C200.468 278.415 201.565 278.184 203.016 278.184C205.113 278.184 206.46 278.701 207.059 279.736C207.417 280.361 207.623 281.243 207.675 282.383C207.694 282.923 207.704 283.519 207.704 284.17C207.704 284.821 207.681 285.43 207.636 285.996C207.596 286.556 207.515 287.061 207.391 287.51C207.268 287.959 207.095 288.353 206.874 288.691C206.652 289.023 206.36 289.303 205.995 289.531C205.279 289.974 204.234 290.195 202.86 290.195C200.803 290.195 199.452 289.688 198.807 288.672C198.41 288.04 198.179 287.155 198.114 286.016C198.082 285.469 198.065 284.87 198.065 284.219ZM200.721 288.291C200.956 288.467 201.249 288.6 201.6 288.691C201.958 288.776 202.444 288.818 203.055 288.818C203.674 288.818 204.192 288.73 204.608 288.555C205.031 288.379 205.347 288.099 205.555 287.715C205.77 287.324 205.904 286.82 205.956 286.201C206.014 285.583 206.044 284.863 206.044 284.043C206.044 283.223 206.018 282.539 205.966 281.992C205.92 281.445 205.8 280.993 205.604 280.635C205.214 279.932 204.345 279.58 202.997 279.58C201.571 279.58 200.643 279.932 200.214 280.635C199.999 280.993 199.862 281.449 199.804 282.002C199.745 282.555 199.716 283.158 199.716 283.809C199.716 284.46 199.722 285.013 199.735 285.469C199.755 285.918 199.797 286.325 199.862 286.689C199.934 287.048 200.035 287.36 200.165 287.627C200.302 287.894 200.487 288.115 200.721 288.291ZM218.808 279.18L218.964 278.379H220.37L220.38 289.785C220.38 291.458 220.051 292.676 219.394 293.438C218.691 294.245 217.502 294.648 215.829 294.648C214.527 294.648 213.372 294.473 212.363 294.121C212.109 294.036 211.913 293.958 211.777 293.887L212.284 292.51C212.402 292.549 212.574 292.611 212.802 292.695C213.03 292.786 213.303 292.874 213.622 292.959C214.43 293.174 215.168 293.281 215.839 293.281C216.516 293.281 217.037 293.213 217.402 293.076C217.766 292.939 218.049 292.728 218.251 292.441C218.59 291.96 218.759 291.084 218.759 289.814V288.887C217.515 289.759 216.2 290.195 214.814 290.195C213.193 290.195 212.112 289.619 211.571 288.467C211.259 287.816 211.077 286.992 211.025 285.996C211.005 285.54 210.995 285.039 210.995 284.492C210.995 283.939 210.999 283.382 211.005 282.822C211.018 282.262 211.06 281.745 211.132 281.27C211.204 280.794 211.314 280.368 211.464 279.99C211.62 279.606 211.842 279.281 212.128 279.014C212.721 278.46 213.632 278.184 214.863 278.184C216.099 278.184 217.415 278.516 218.808 279.18ZM218.759 280.527C217.587 279.941 216.454 279.648 215.361 279.648C214.566 279.648 214.042 279.714 213.788 279.844C213.534 279.974 213.339 280.143 213.202 280.352C213.072 280.56 212.965 280.846 212.88 281.211C212.73 281.895 212.655 283.021 212.655 284.59V284.805C212.655 286.25 212.835 287.262 213.193 287.842C213.551 288.434 214.205 288.73 215.155 288.73H215.302C216.2 288.73 217.118 288.483 218.056 287.988C218.323 287.852 218.557 287.712 218.759 287.568V280.527ZM223.906 284.219C223.906 282.741 223.981 281.709 224.13 281.123C224.28 280.537 224.463 280.075 224.677 279.736C224.899 279.391 225.195 279.105 225.566 278.877C226.308 278.415 227.405 278.184 228.857 278.184C230.953 278.184 232.301 278.701 232.9 279.736C233.258 280.361 233.463 281.243 233.515 282.383C233.535 282.923 233.545 283.519 233.545 284.17C233.545 284.821 233.522 285.43 233.476 285.996C233.437 286.556 233.356 287.061 233.232 287.51C233.108 287.959 232.936 288.353 232.714 288.691C232.493 289.023 232.2 289.303 231.836 289.531C231.119 289.974 230.074 290.195 228.701 290.195C226.643 290.195 225.293 289.688 224.648 288.672C224.251 288.04 224.02 287.155 223.955 286.016C223.922 285.469 223.906 284.87 223.906 284.219ZM226.562 288.291C226.796 288.467 227.089 288.6 227.441 288.691C227.799 288.776 228.284 288.818 228.896 288.818C229.515 288.818 230.032 288.73 230.449 288.555C230.872 288.379 231.188 288.099 231.396 287.715C231.611 287.324 231.744 286.82 231.796 286.201C231.855 285.583 231.884 284.863 231.884 284.043C231.884 283.223 231.858 282.539 231.806 281.992C231.761 281.445 231.64 280.993 231.445 280.635C231.054 279.932 230.185 279.58 228.838 279.58C227.412 279.58 226.484 279.932 226.054 280.635C225.839 280.993 225.703 281.449 225.644 282.002C225.586 282.555 225.556 283.158 225.556 283.809C225.556 284.46 225.563 285.013 225.576 285.469C225.595 285.918 225.638 286.325 225.703 286.689C225.774 287.048 225.875 287.36 226.005 287.627C226.142 287.894 226.328 288.115 226.562 288.291Z" fill="#F2E9E4"/>
<mask id="path-2-inside-1_21_77" fill="white">
<path d="M281 432C281 448.284 277.806 464.408 271.599 479.453C265.393 494.497 256.296 508.167 244.828 519.681C233.36 531.196 219.745 540.329 204.761 546.561C189.778 552.793 173.718 556 157.5 556C141.282 556 125.222 552.793 110.239 546.561C95.2549 540.329 81.6403 531.196 70.1723 519.681C58.7043 508.167 49.6073 494.497 43.4009 479.453C37.1944 464.408 34 448.284 34 432L157.5 432H281Z"/>
</mask>
<path d="M281 432C281 448.284 277.806 464.408 271.599 479.453C265.393 494.497 256.296 508.167 244.828 519.681C233.36 531.196 219.745 540.329 204.761 546.561C189.778 552.793 173.718 556 157.5 556C141.282 556 125.222 552.793 110.239 546.561C95.2549 540.329 81.6403 531.196 70.1723 519.681C58.7043 508.167 49.6073 494.497 43.4009 479.453C37.1944 464.408 34 448.284 34 432L157.5 432H281Z" fill="#F2E9E4" stroke="#F2E9E4" stroke-width="6" mask="url(#path-2-inside-1_21_77)"/>
<path d="M280.204 434.516L280.24 456.785C280.26 469.561 290.852 479.901 303.628 479.88C316.166 479.86 326.527 469.679 326.506 457.142C326.486 444.605 316.306 434.458 303.769 434.478L280.204 434.516Z" stroke="#F2E9E4" stroke-width="5"/>
<path fill-rule="evenodd" clip-rule="evenodd" d="M147.35 170.229C161.642 210.924 186.576 232.254 211.062 253.201C248.57 285.289 285.028 316.478 280.579 415H105.799C101.513 408.366 108.058 403.232 116.237 396.815C121.328 392.821 127.051 388.33 131.191 382.672C138.28 372.984 129.213 351.993 129.213 351.993L73.481 415H41.1632C39.7364 409.913 43.1192 408.933 48.2007 407.461C56.7696 404.98 70.1689 401.099 73.481 373.765C78.7574 330.221 73.481 281.398 73.481 281.398C73.481 281.398 19.4986 244.452 26.6531 156.374C30.8049 105.262 55.5232 76.6714 76.2756 52.6679L76.2757 52.6679C91.2848 35.3075 104.219 20.3465 105.799 1V55.1004C112.306 46.8145 118.925 41.1904 124.939 36.0803C135.755 26.8895 144.615 19.3612 147.35 1V55.1004C172.505 72.7225 182.735 84.002 186.923 109.201H244.634C225.863 170.015 195.397 174.051 147.35 170.229ZM280.579 415C300.582 414.137 301.599 312.272 302.373 234.769V234.767C302.63 209.042 302.86 186.001 303.749 170.229C307.315 106.936 384.458 96.6653 396 125.365C377.054 139.155 378.137 181.196 379.372 229.125C381.534 313.038 384.161 415 280.579 415ZM180 96C180 108.15 170.374 118 158.5 118C146.626 118 137 108.15 137 96C137 83.8497 146.626 74 158.5 74C170.374 74 180 83.8497 180 96Z" fill="#F2E9E4"/>
<path d="M211.062 253.201L210.087 254.341L210.087 254.341L211.062 253.201ZM147.35 170.229L147.469 168.733L145.171 168.551L145.935 170.726L147.35 170.229ZM105.799 415L104.539 415.814L104.982 416.5H105.799V415ZM116.237 396.815L115.311 395.634L115.311 395.634L116.237 396.815ZM131.191 382.672L132.402 383.557L132.402 383.557L131.191 382.672ZM129.213 351.993L130.59 351.398L129.654 349.23L128.089 350.999L129.213 351.993ZM73.481 415V416.5H74.1568L74.6046 415.994L73.481 415ZM41.1632 415L39.7189 415.405L40.026 416.5H41.1632V415ZM48.2007 407.461L47.7835 406.021L47.7835 406.021L48.2007 407.461ZM73.481 373.765L71.9919 373.584L71.9919 373.584L73.481 373.765ZM73.481 281.398L74.9724 281.237L74.8982 280.551L74.3282 280.161L73.481 281.398ZM26.6531 156.374L25.1581 156.252L26.6531 156.374ZM76.2756 52.6679L75.215 51.6072L75.1765 51.6457L75.1409 51.6868L76.2756 52.6679ZM76.2757 52.6679L77.3363 53.7285L77.3748 53.69L77.4104 53.6489L76.2757 52.6679ZM105.799 1H107.299L104.304 0.877948L105.799 1ZM105.799 55.1004H104.299V59.439L106.979 56.0269L105.799 55.1004ZM124.939 36.0803L123.968 34.9372L123.968 34.9372L124.939 36.0803ZM147.35 1H148.85L145.867 0.778984L147.35 1ZM147.35 55.1004H145.85V55.881L146.49 56.3289L147.35 55.1004ZM186.923 109.201L185.444 109.447L185.652 110.701H186.923V109.201ZM244.634 109.201L246.067 109.643L246.667 107.701H244.634V109.201ZM302.373 234.769L303.873 234.784L303.873 234.776V234.769H302.373ZM302.373 234.767L300.873 234.752L300.873 234.76V234.767H302.373ZM303.749 170.229L302.252 170.144L302.252 170.144L303.749 170.229ZM396 125.365L396.883 126.578L397.828 125.89L397.392 124.805L396 125.365ZM379.372 229.125L377.872 229.163L377.872 229.163L379.372 229.125ZM212.037 252.061C187.557 231.119 162.913 210.014 148.766 169.732L145.935 170.726C160.372 211.834 185.595 233.389 210.087 254.341L212.037 252.061ZM282.078 415.068C284.311 365.61 276.282 332.891 262.869 308.466C249.473 284.07 230.772 268.089 212.037 252.061L210.087 254.341C228.86 270.401 247.142 286.059 260.239 309.91C273.321 333.731 281.296 365.868 279.081 414.932L282.078 415.068ZM105.799 416.5H280.579V413.5H105.799V416.5ZM115.311 395.634C111.285 398.793 107.404 401.821 105.131 404.943C103.972 406.535 103.149 408.253 102.978 410.126C102.804 412.026 103.316 413.921 104.539 415.814L107.059 414.186C106.139 412.762 105.862 411.528 105.965 410.399C106.071 409.242 106.592 408.033 107.556 406.709C109.528 404.001 113.009 401.253 117.163 397.995L115.311 395.634ZM129.981 381.786C125.983 387.249 120.43 391.618 115.311 395.634L117.163 397.995C122.225 394.023 128.12 389.41 132.402 383.557L129.981 381.786ZM129.213 351.993C127.836 352.588 127.836 352.587 127.836 352.587C127.836 352.587 127.836 352.587 127.836 352.587C127.836 352.588 127.836 352.588 127.836 352.589C127.837 352.591 127.838 352.594 127.84 352.598C127.844 352.606 127.85 352.62 127.857 352.638C127.873 352.675 127.896 352.731 127.927 352.805C127.989 352.954 128.08 353.176 128.193 353.465C128.421 354.041 128.74 354.88 129.103 355.918C129.828 357.998 130.72 360.862 131.394 364.013C132.069 367.172 132.513 370.568 132.374 373.725C132.235 376.894 131.513 379.692 129.981 381.786L132.402 383.557C134.414 380.807 135.217 377.349 135.371 373.857C135.526 370.354 135.033 366.686 134.327 363.386C133.62 360.078 132.688 357.089 131.935 354.93C131.558 353.849 131.224 352.972 130.984 352.363C130.863 352.058 130.766 351.82 130.699 351.657C130.665 351.575 130.638 351.512 130.62 351.469C130.611 351.447 130.604 351.43 130.599 351.418C130.596 351.412 130.594 351.408 130.593 351.404C130.592 351.403 130.591 351.401 130.591 351.4C130.591 351.4 130.59 351.399 130.59 351.399C130.59 351.398 130.59 351.398 129.213 351.993ZM74.6046 415.994L130.336 352.987L128.089 350.999L72.3575 414.006L74.6046 415.994ZM41.1632 416.5H73.481V413.5H41.1632V416.5ZM47.7835 406.021C46.5283 406.384 45.3044 406.738 44.2303 407.14C43.16 407.541 42.1288 408.029 41.292 408.713C40.4235 409.423 39.7686 410.342 39.4864 411.538C39.2126 412.698 39.321 413.986 39.7189 415.405L42.6075 414.595C42.292 413.47 42.2881 412.728 42.4062 412.227C42.5157 411.763 42.7566 411.391 43.1907 411.036C43.6564 410.655 44.3345 410.305 45.2831 409.949C46.2279 409.595 47.3324 409.275 48.618 408.902L47.7835 406.021ZM71.9919 373.584C70.364 387.02 66.2876 394.465 61.7669 398.857C57.2268 403.268 52.0708 404.779 47.7835 406.021L48.618 408.902C52.8996 407.662 58.7277 405.992 63.8574 401.009C69.0066 396.006 73.2859 387.845 74.9702 373.945L71.9919 373.584ZM73.481 281.398C71.9897 281.56 71.9897 281.56 71.9898 281.56C71.9898 281.56 71.9898 281.561 71.9899 281.561C71.99 281.563 71.9903 281.565 71.9906 281.567C71.9912 281.573 71.9921 281.581 71.9933 281.593C71.9957 281.616 71.9994 281.65 72.0042 281.696C72.0138 281.788 72.0282 281.926 72.0467 282.109C72.0837 282.474 72.1374 283.016 72.2041 283.722C72.3374 285.135 72.5222 287.204 72.7276 289.825C73.1385 295.065 73.6319 302.508 73.9607 311.309C74.6189 328.92 74.6167 351.923 71.9919 373.584L74.9702 373.945C77.6218 352.062 77.6196 328.883 76.9586 311.197C76.628 302.348 76.132 294.864 75.7184 289.59C75.5117 286.953 75.3255 284.868 75.1908 283.44C75.1235 282.727 75.0691 282.178 75.0314 281.806C75.0125 281.62 74.9978 281.479 74.9878 281.383C74.9829 281.336 74.979 281.3 74.9764 281.275C74.9751 281.263 74.9741 281.254 74.9734 281.247C74.9731 281.244 74.9728 281.242 74.9727 281.24C74.9726 281.239 74.9725 281.239 74.9725 281.238C74.9724 281.238 74.9724 281.237 73.481 281.398ZM25.1581 156.252C21.5527 200.638 33.3537 232.211 46.1107 252.708C52.484 262.948 59.0878 270.411 64.1093 275.322C66.6203 277.777 68.7366 279.596 70.2323 280.805C70.9802 281.41 71.573 281.863 71.9827 282.167C72.1875 282.319 72.3465 282.433 72.4562 282.512C72.511 282.551 72.5536 282.58 72.5833 282.601C72.5982 282.612 72.6099 282.62 72.6183 282.626C72.6225 282.628 72.6259 282.631 72.6285 282.633C72.6298 282.633 72.6312 282.634 72.6318 282.635C72.6329 282.636 72.6338 282.636 73.481 281.398C74.3282 280.161 74.3288 280.161 74.3291 280.161C74.3289 280.161 74.329 280.161 74.3286 280.161C74.3279 280.16 74.3264 280.159 74.3241 280.158C74.3195 280.155 74.3116 280.149 74.3006 280.141C74.2785 280.126 74.2437 280.101 74.1966 280.068C74.1025 280.001 73.9593 279.898 73.7704 279.757C73.3928 279.477 72.8328 279.05 72.1186 278.472C70.6901 277.317 68.6449 275.561 66.2069 273.177C61.3302 268.408 54.8856 261.129 48.6576 251.123C36.212 231.126 24.5991 200.188 28.1482 156.495L25.1581 156.252ZM75.1409 51.6868C54.3658 75.7166 29.3517 104.625 25.1581 156.252L28.1482 156.495C32.2581 105.899 56.6805 77.6262 77.4104 53.6489L75.1409 51.6868ZM75.215 51.6072L75.215 51.6072L77.3363 53.7285L77.3363 53.7285L75.215 51.6072ZM104.304 0.877948C102.772 19.6447 90.2357 34.2273 75.141 51.6868L77.4104 53.6489C92.3338 36.3876 105.667 21.0482 107.294 1.12205L104.304 0.877948ZM107.299 55.1004V1H104.299V55.1004H107.299ZM123.968 34.9372C117.954 40.0474 111.229 45.7571 104.619 54.1739L106.979 56.0269C113.383 47.872 119.896 42.3334 125.91 37.2233L123.968 34.9372ZM145.867 0.778984C144.533 9.73302 141.722 15.9736 137.966 21.0915C134.179 26.2519 129.4 30.3213 123.968 34.9372L125.91 37.2233C131.294 32.6485 136.354 28.3584 140.384 22.8665C144.446 17.3323 147.433 10.6282 148.834 1.22102L145.867 0.778984ZM148.85 55.1004V1H145.85V55.1004H148.85ZM188.403 108.955C186.279 96.1769 182.6 86.8121 176.193 78.4004C169.818 70.0326 160.809 62.6975 148.211 53.8719L146.49 56.3289C159.046 65.1255 167.73 72.2411 173.806 80.2183C179.849 88.1517 183.379 97.026 185.444 109.447L188.403 108.955ZM244.634 107.701H186.923V110.701H244.634V107.701ZM147.231 171.724C171.241 173.634 191.266 173.635 207.651 165.29C224.131 156.897 236.623 140.241 246.067 109.643L243.2 108.758C233.874 138.974 221.748 154.744 206.29 162.617C190.738 170.537 171.506 170.645 147.469 168.733L147.231 171.724ZM300.873 234.754C300.486 273.522 300.038 318.306 297.192 353.504C295.768 371.114 293.749 386.239 290.865 396.985C289.421 402.368 287.786 406.547 285.965 409.375C284.134 412.22 282.303 413.424 280.514 413.501L280.644 416.499C283.856 416.36 286.432 414.192 288.488 410.999C290.555 407.788 292.287 403.262 293.763 397.763C296.72 386.744 298.755 371.397 300.182 353.746C303.039 318.42 303.486 273.519 303.873 234.784L300.873 234.754ZM300.873 234.767V234.769H303.873V234.767H300.873ZM302.252 170.144C301.36 185.96 301.13 209.043 300.873 234.752L303.873 234.782C304.13 209.041 304.36 186.043 305.247 170.313L302.252 170.144ZM397.392 124.805C394.261 117.022 386.757 112.057 377.56 109.906C368.346 107.751 357.23 108.355 346.419 111.873C324.759 118.924 304.075 137.78 302.252 170.144L305.247 170.313C306.989 139.385 326.66 121.46 347.348 114.726C357.712 111.353 368.268 110.814 376.876 112.827C385.501 114.844 391.967 119.358 394.608 125.925L397.392 124.805ZM380.871 229.086C380.253 205.088 379.679 182.707 381.61 164.602C383.551 146.396 387.981 133.057 396.883 126.578L395.117 124.152C385.073 131.463 380.572 146.039 378.626 164.283C376.671 182.628 377.256 205.232 377.872 229.163L380.871 229.086ZM280.579 416.5C306.728 416.5 326.326 410.061 340.927 398.951C355.519 387.848 364.977 372.19 371.052 354.005C383.174 317.724 381.95 270.962 380.871 229.086L377.872 229.163C378.956 271.201 380.127 317.377 368.207 353.054C362.262 370.849 353.09 385.926 339.11 396.564C325.139 407.194 306.221 413.5 280.579 413.5V416.5ZM158.5 119.5C171.235 119.5 181.5 108.946 181.5 96H178.5C178.5 107.355 169.513 116.5 158.5 116.5V119.5ZM135.5 96C135.5 108.946 145.765 119.5 158.5 119.5V116.5C147.487 116.5 138.5 107.355 138.5 96H135.5ZM158.5 72.5C145.765 72.5 135.5 83.054 135.5 96H138.5C138.5 84.6455 147.487 75.5 158.5 75.5V72.5ZM181.5 96C181.5 83.054 171.235 72.5 158.5 72.5V75.5C169.513 75.5 178.5 84.6455 178.5 96H181.5Z" fill="#F2E9E4"/>
</svg>
